<?xml version="1.0" standalone="no"?>
<!DOCTYPE svg PUBLIC "-//W3C//DTD SVG 20010904//EN"
 "http://www.w3.org/TR/2001/REC-SVG-20010904/DTD/svg10.dtd">
<svg version="1.0" xmlns="http://www.w3.org/2000/svg"
 width="940.000000pt" height="936.000000pt" viewBox="0 0 940.000000 936.000000"
 preserveAspectRatio="xMidYMid meet">

<g transform="translate(0.000000,936.000000) scale(0.100000,-0.100000)"
fill="#000000" stroke="none">
<path d="M4280 9293 c-25 -2 -115 -13 -200 -24 -1528 -199 -2851 -1142 -3545
-2529 -254 -507 -397 -1003 -467 -1625 -16 -145 -16 -712 0 -870 71 -686 267
-1301 597 -1875 712 -1238 1968 -2086 3380 -2279 219 -30 390 -41 656 -41 714
0 1405 163 2041 481 187 93 272 142 448 257 410 267 724 544 1033 909 607 719
969 1582 1069 2548 19 188 16 716 -5 910 -86 771 -331 1450 -752 2085 -454
685 -1099 1249 -1830 1601 -518 249 -1025 391 -1579 444 -146 14 -705 19 -846
8z m466 -934 c10 -17 -13 -36 -27 -22 -12 12 -4 33 11 33 5 0 12 -5 16 -11z
m154 -79 c0 -5 -4 -10 -10 -10 -5 0 -10 5 -10 10 0 6 5 10 10 10 6 0 10 -4 10
-10z m-20 -100 c0 -5 -4 -10 -10 -10 -5 0 -10 5 -10 10 0 6 5 10 10 10 6 0 10
-4 10 -10z m-270 -45 c0 -8 -7 -15 -15 -15 -16 0 -20 12 -8 23 11 12 23 8 23
-8z m-345 -95 c3 -5 1 -10 -4 -10 -6 0 -11 5 -11 10 0 6 2 10 4 10 3 0 8 -4
11 -10z m90 -9 c7 -12 -12 -24 -25 -16 -11 7 -4 25 10 25 5 0 11 -4 15 -9z
m215 -21 c0 -5 -4 -10 -10 -10 -5 0 -10 5 -10 10 0 6 5 10 10 10 6 0 10 -4 10
-10z m110 -50 c0 -11 -7 -20 -15 -20 -13 0 -14 4 -5 20 6 11 13 20 15 20 3 0
5 -9 5 -20z m-252 -1 c-2 -6 -8 -10 -13 -10 -5 0 -11 4 -13 10 -2 6 4 11 13
11 9 0 15 -5 13 -11z m-78 -139 c0 -5 -4 -10 -9 -10 -6 0 -13 5 -16 10 -3 6 1
10 9 10 9 0 16 -4 16 -10z m72 -25 c0 -5 -5 -11 -11 -13 -6 -2 -11 4 -11 13 0
9 5 15 11 13 6 -2 11 -8 11 -13z m129 -38 c-13 -13 -26 -3 -16 12 3 6 11 8 17
5 6 -4 6 -10 -1 -17z m-51 -97 c0 -5 -4 -10 -10 -10 -5 0 -10 5 -10 10 0 6 5
10 10 10 6 0 10 -4 10 -10z m30 -30 c0 -5 -4 -10 -10 -10 -5 0 -10 5 -10 10 0
6 5 10 10 10 6 0 10 -4 10 -10z m-200 -50 c0 -5 -5 -10 -11 -10 -5 0 -7 5 -4
10 3 6 8 10 11 10 2 0 4 -4 4 -10z m170 -127 c0 -5 -4 -15 -10 -23 -11 -18
-25 -7 -17 15 6 15 27 21 27 8z m1200 -123 c0 -5 -4 -10 -10 -10 -5 0 -10 5
-10 10 0 6 5 10 10 10 6 0 10 -4 10 -10z m-1310 -10 c0 -5 -5 -10 -11 -10 -5
0 -7 5 -4 10 3 6 8 10 11 10 2 0 4 -4 4 -10z m1150 -54 c0 -3 -4 -8 -10 -11
-5 -3 -10 -1 -10 4 0 6 5 11 10 11 6 0 10 -2 10 -4z m-1075 -16 c-3 -5 -10
-10 -16 -10 -5 0 -9 5 -9 10 0 6 7 10 16 10 8 0 12 -4 9 -10z m1155 -40 c0 -5
-4 -10 -10 -10 -5 0 -10 5 -10 10 0 6 5 10 10 10 6 0 10 -4 10 -10z m210 -80
c0 -5 -4 -10 -10 -10 -5 0 -10 5 -10 10 0 6 5 10 10 10 6 0 10 -4 10 -10z
m-1096 -42 c2 -18 14 -91 25 -163 28 -178 30 -335 4 -378 -7 -12 -33 41 -32
66 1 12 -8 74 -20 137 -46 244 -47 264 -21 320 13 27 27 50 31 50 5 0 10 -15
13 -32z m-634 -118 c0 -5 -7 -10 -15 -10 -8 0 -15 5 -15 10 0 6 7 10 15 10 8
0 15 -4 15 -10z m235 -20 c3 -5 1 -10 -4 -10 -6 0 -11 5 -11 10 0 6 2 10 4 10
3 0 8 -4 11 -10z m-40 -39 c7 -12 -12 -24 -25 -16 -11 7 -4 25 10 25 5 0 11
-4 15 -9z m1116 -64 c-13 -13 -26 -3 -16 12 3 6 11 8 17 5 6 -4 6 -10 -1 -17z
m-213 2 c-2 -6 -8 -10 -13 -10 -5 0 -11 4 -13 10 -2 6 4 11 13 11 9 0 15 -5
13 -11z m-670 -287 c7 -69 -58 -220 -142 -331 -23 -29 -51 -68 -64 -85 -12
-17 -55 -63 -95 -101 -58 -57 -76 -82 -93 -130 -12 -33 -30 -82 -42 -110 -52
-129 -64 -187 -60 -280 3 -60 11 -108 25 -142 23 -57 20 -62 -15 -37 -28 19
-58 77 -77 150 -22 87 -7 222 36 305 48 95 101 167 163 228 31 30 68 75 82
100 15 25 53 82 84 126 69 97 93 142 115 220 10 33 24 75 32 93 20 42 47 39
51 -6z m-858 -162 c0 -5 -5 -10 -11 -10 -5 0 -7 5 -4 10 3 6 8 10 11 10 2 0 4
-4 4 -10z m110 -29 c0 -18 -18 -21 -30 -6 -10 13 -9 15 9 15 11 0 21 -4 21 -9z
m1479 -180 c20 -69 34 -93 148 -262 71 -106 126 -303 109 -394 -4 -21 -12 -35
-19 -32 -6 2 -26 62 -43 133 -43 174 -73 244 -132 309 -62 68 -95 124 -117
200 -15 51 -16 66 -5 110 17 68 23 75 31 40 4 -17 17 -63 28 -104z m-1689 110
c0 -5 -7 -11 -15 -15 -9 -3 -15 0 -15 9 0 8 7 15 15 15 8 0 15 -4 15 -9z m60
-15 c0 -3 -4 -8 -10 -11 -5 -3 -10 -1 -10 4 0 6 5 11 10 11 6 0 10 -2 10 -4z
m275 -55 c-29 -58 -36 -125 -20 -204 9 -40 24 -84 35 -99 35 -48 25 -59 -35
-34 -55 23 -69 63 -62 174 7 97 23 139 70 183 27 25 32 18 12 -20z m-70 9 c3
-5 -1 -10 -9 -10 -9 0 -16 5 -16 10 0 6 4 10 9 10 6 0 13 -4 16 -10z m940
-215 c9 -49 26 -107 36 -127 13 -25 17 -47 13 -64 -5 -19 -1 -29 15 -40 11 -8
21 -26 21 -38 0 -19 10 -27 60 -45 33 -12 85 -35 116 -52 31 -16 66 -29 79
-29 31 0 115 -36 115 -50 0 -5 6 -10 13 -10 13 0 21 -8 73 -75 73 -93 92 -170
74 -299 -13 -98 -51 -212 -75 -230 -9 -6 -14 -22 -13 -36 3 -21 -1 -25 -26
-25 -19 -1 -34 -9 -44 -23 -9 -14 -10 -22 -3 -22 6 0 11 -7 11 -15 0 -25 -17
-17 -24 10 -6 24 -8 24 -22 10 -15 -14 -18 -14 -34 5 -29 33 -41 25 -34 -22 8
-50 12 -57 24 -39 12 21 40 5 40 -23 0 -22 -3 -24 -22 -17 -22 8 -23 6 -24
-43 -1 -54 -4 -73 -18 -94 -4 -7 -3 -19 3 -26 6 -7 14 -35 17 -62 4 -27 11
-57 15 -66 5 -10 5 -28 -1 -42 -5 -14 -6 -26 -2 -26 4 0 7 -29 7 -65 0 -47 -4
-69 -15 -75 -12 -8 -9 -9 10 -8 20 3 25 -2 28 -22 1 -14 5 -41 9 -60 6 -33 6
-34 13 -10 12 44 23 -82 18 -207 -3 -62 -2 -116 3 -118 4 -3 20 -27 35 -53 26
-44 28 -54 27 -152 -2 -131 -18 -175 -71 -196 -39 -15 -113 -46 -171 -71 -30
-13 -33 -13 -22 0 6 8 23 18 36 21 22 6 43 41 31 53 -6 7 -66 -20 -66 -29 0
-5 -4 -8 -10 -8 -5 0 -10 7 -10 15 0 8 6 15 13 15 17 0 49 38 37 45 -13 8 -1
35 15 35 15 0 18 57 4 66 -5 3 -2 18 6 34 18 34 18 40 4 40 -6 0 -21 -13 -34
-28 -13 -16 -44 -41 -69 -57 -25 -16 -46 -32 -46 -36 0 -7 -68 -31 -125 -44
-41 -9 -127 -51 -151 -74 -12 -11 -46 -29 -75 -41 -30 -12 -65 -27 -79 -33
-53 -23 -66 -18 -114 46 -26 36 -42 79 -61 171 -7 34 -26 84 -43 112 -16 27
-39 76 -51 108 l-21 57 31 31 31 31 29 -34 c16 -19 29 -38 29 -42 0 -5 8 -21
18 -35 10 -15 26 -45 34 -66 l15 -39 39 39 c22 21 60 49 84 61 25 12 38 22 30
22 -12 1 -15 16 -14 83 1 46 -4 126 -11 178 -7 52 -10 110 -7 129 4 24 2 32
-6 27 -8 -5 -12 0 -12 13 0 11 -9 25 -21 31 -19 11 -20 17 -14 132 3 67 13
153 22 192 15 62 18 96 14 144 -1 8 -19 12 -53 12 -46 0 -61 6 -130 51 -64 42
-83 61 -108 108 -18 32 -29 66 -27 79 2 12 1 22 -3 22 -21 0 -40 195 -21 215
5 6 11 40 13 78 1 38 7 67 13 67 6 0 18 21 27 48 12 33 40 71 95 127 88 90
111 107 168 124 22 7 47 15 55 18 8 3 26 6 40 8 25 2 155 22 198 31 19 4 21 8
12 24 -15 27 -12 50 5 50 21 0 19 23 -4 37 -37 23 -82 278 -54 307 10 10 18
-13 38 -119z m1295 -75 c0 -5 -4 -10 -10 -10 -5 0 -10 5 -10 10 0 6 5 10 10
10 6 0 10 -4 10 -10z m-2660 -14 c0 -11 -19 -15 -25 -6 -3 5 1 10 9 10 9 0 16
-2 16 -4z m2494 -127 c-3 -5 -10 -7 -15 -3 -5 3 -7 10 -3 15 3 5 10 7 15 3 5
-3 7 -10 3 -15z m-2404 -79 c0 -5 -4 -10 -10 -10 -5 0 -10 5 -10 10 0 6 5 10
10 10 6 0 10 -4 10 -10z m347 -635 c54 -108 73 -136 133 -194 89 -87 135 -121
163 -121 62 0 80 -35 23 -45 -23 -5 -59 1 -110 16 -101 30 -175 88 -215 167
-48 96 -85 255 -64 276 10 9 27 -15 70 -99z m1773 -102 c-10 -16 -11 -15 -6 7
3 14 6 34 7 45 1 13 3 11 6 -7 2 -15 -1 -35 -7 -45z m370 -23 c0 -5 -7 -10
-15 -10 -8 0 -15 5 -15 10 0 6 7 10 15 10 8 0 15 -4 15 -10z m-40 -20 c0 -5
-5 -10 -11 -10 -5 0 -7 5 -4 10 3 6 8 10 11 10 2 0 4 -4 4 -10z m-2510 -40 c0
-5 -5 -10 -11 -10 -5 0 -7 5 -4 10 3 6 8 10 11 10 2 0 4 -4 4 -10z m2350 -35
c0 -8 -4 -15 -10 -15 -5 0 -10 7 -10 15 0 8 5 15 10 15 6 0 10 -7 10 -15z
m-2061 -27 c-8 -16 -29 -25 -29 -14 0 2 -3 11 -6 20 -5 12 0 15 19 14 21 -2
24 -5 16 -20z m31 -44 c0 -8 -4 -12 -10 -9 -5 3 -10 10 -10 16 0 5 5 9 10 9 6
0 10 -7 10 -16z m1920 -14 c0 -5 -5 -10 -11 -10 -5 0 -7 5 -4 10 3 6 8 10 11
10 2 0 4 -4 4 -10z m-360 -14 c0 -3 -4 -8 -10 -11 -5 -3 -10 -1 -10 4 0 6 5
11 10 11 6 0 10 -2 10 -4z m-90 -46 c0 -5 -4 -10 -10 -10 -5 0 -10 5 -10 10 0
6 5 10 10 10 6 0 10 -4 10 -10z m-1706 -43 c6 -9 7 -19 3 -23 -9 -10 -48 26
-41 38 8 12 25 6 38 -15z m828 -141 c22 -23 23 -30 18 -93 -9 -90 -71 -233
-102 -233 -4 0 -8 7 -8 15 0 8 -4 15 -9 15 -13 0 -23 -32 -13 -42 20 -20 -22
-128 -49 -128 -19 0 -40 76 -38 139 1 37 -1 86 -4 111 -4 40 1 54 46 133 27
48 57 92 66 97 29 17 68 11 93 -14z m825 -203 c-3 -10 -5 -4 -5 12 0 17 2 24
5 18 2 -7 2 -21 0 -30z m387 -170 c4 -5 12 -9 17 -9 5 -1 13 -2 17 -3 11 -2
45 -61 38 -68 -3 -3 -10 7 -16 22 -6 15 -13 25 -16 22 -3 -3 3 -22 14 -44 11
-21 22 -58 26 -83 5 -25 10 -58 13 -75 6 -38 41 -107 59 -118 18 -10 18 -57
-1 -116 -8 -25 -17 -63 -20 -84 -4 -23 -11 -37 -18 -34 -8 3 -11 34 -9 105 2
100 2 102 -21 102 -12 0 -38 -13 -57 -30 -33 -28 -34 -29 -11 -30 22 0 22 -1
9 -22 -13 -20 -13 -31 -1 -88 14 -65 13 -274 -2 -313 -10 -24 -61 -23 -68 2
-2 11 0 24 6 30 8 8 5 11 -11 11 -13 0 -22 6 -22 15 0 8 -8 15 -17 16 -10 0
-13 3 -7 5 8 4 9 14 2 37 -6 21 -5 75 4 162 13 122 15 130 36 133 30 5 28 22
-3 22 -18 0 -31 10 -45 33 -16 26 -20 28 -20 12 0 -11 7 -31 16 -43 9 -13 13
-26 9 -30 -19 -19 -55 99 -62 206 -7 101 17 203 55 239 25 23 89 32 106 16z
m163 -515 c-3 -7 -5 -2 -5 12 0 14 2 19 5 13 2 -7 2 -19 0 -25z m-677 -184 c0
-2 -9 -8 -19 -13 -14 -8 -20 -7 -24 3 -4 9 3 14 19 14 13 0 24 -2 24 -4z m-74
-36 c-9 -5 -22 -7 -29 -4 -7 2 -4 5 6 5 9 1 17 6 17 12 0 5 5 7 11 3 8 -5 6
-10 -5 -16z m-33 -19 c19 -19 19 -21 3 -15 -13 4 -17 2 -13 -8 3 -8 -2 -16
-14 -19 -16 -4 -17 -2 -8 15 14 26 8 31 -22 19 -13 -5 -17 -10 -9 -11 13 0 13
-1 0 -10 -12 -8 -12 -10 -1 -10 8 0 12 -3 9 -6 -4 -3 -15 -1 -27 5 -11 6 -22
7 -25 2 -3 -5 1 -11 9 -15 18 -7 20 -29 3 -24 -7 3 -26 -8 -42 -23 -25 -23
-28 -30 -17 -43 8 -9 20 -16 27 -16 14 0 18 -11 15 -42 -2 -11 4 -18 14 -18
13 0 14 -4 4 -22 -10 -18 -8 -24 7 -35 24 -18 27 -17 54 12 13 14 29 25 36 25
7 0 46 32 86 71 113 108 131 111 84 13 -13 -27 -27 -77 -30 -109 l-6 -60 23
55 c49 117 100 214 104 202 4 -9 11 -4 23 16 10 16 27 32 39 35 13 3 19 1 15
-5 -5 -7 6 -8 31 -4 l37 7 -4 -33 c-6 -35 24 -88 49 -88 7 0 13 -5 13 -11 0
-6 7 -9 14 -6 9 4 17 -2 21 -14 4 -10 15 -19 25 -19 22 0 33 -32 30 -85 -3
-49 -23 -87 -107 -205 -10 -14 -25 -41 -34 -60 -37 -80 -127 -200 -151 -200
-4 0 -8 -5 -8 -11 0 -6 7 -8 18 -4 13 5 14 4 5 -6 -9 -9 -18 -8 -37 5 -24 15
-28 15 -63 -3 -53 -26 -95 -34 -126 -22 -17 7 -28 7 -32 1 -4 -6 -1 -10 4 -10
6 0 11 -4 11 -10 0 -5 -16 -10 -35 -10 -23 0 -38 -6 -42 -16 -3 -9 -15 -20
-27 -24 -17 -7 -18 -9 -3 -9 9 -1 17 -5 17 -10 0 -16 -91 -17 -135 -3 -52 17
-70 35 -100 95 -30 58 -32 76 -6 53 19 -17 19 -17 4 26 -8 24 -23 57 -33 73
-24 40 -129 355 -136 409 -5 37 -3 44 17 58 13 8 49 21 79 28 30 8 62 19 70
26 8 6 29 19 46 27 18 9 46 29 64 44 22 19 54 32 94 39 34 6 62 12 64 13 2 0
13 -9 25 -20z m29 -86 c-6 -2 -10 -9 -6 -14 3 -5 0 -9 -5 -9 -12 0 -14 13 -4
23 3 4 11 7 17 6 6 0 5 -3 -2 -6z m-44 -35 c-2 -13 -10 -23 -18 -24 -48 -3
-52 -5 -47 -19 4 -8 2 -17 -2 -20 -5 -3 -12 3 -15 12 -4 9 -1 20 6 24 7 5 27
17 43 28 38 25 37 25 33 -1z m366 -582 c-3 -9 -10 -13 -15 -10 -5 3 -3 11 4
19 15 16 19 13 11 -9z m-675 -343 c7 -15 17 -21 36 -19 20 3 23 1 14 -10 -9
-11 -8 -14 0 -14 7 0 9 -4 6 -10 -3 -5 2 -21 11 -35 9 -14 13 -25 10 -25 -4 0
-2 -10 4 -22 9 -18 5 -16 -13 6 -17 19 -31 27 -41 23 -15 -6 -15 -10 4 -44 11
-21 26 -46 33 -56 10 -15 8 -21 -12 -38 -25 -21 -53 -18 -83 8 -18 16 -48 15
-51 -2 -1 -5 15 -21 37 -35 l38 -24 -44 -38 c-23 -21 -51 -45 -60 -53 -22 -18
-23 -68 -3 -150 8 -33 14 -79 15 -103 0 -30 5 -44 16 -49 23 -9 36 16 29 60
-4 28 -2 37 9 37 18 0 25 42 19 106 l-5 51 53 30 c56 32 69 30 48 -9 -8 -13
-12 -26 -11 -30 1 -5 -14 -8 -34 -8 -31 0 -35 -3 -32 -22 3 -19 26 -38 62 -51
6 -2 0 -13 -13 -26 -19 -19 -22 -31 -20 -89 2 -66 15 -122 27 -122 6 0 7 -16
3 -77 -1 -7 -8 -13 -16 -13 -11 0 -14 7 -11 24 3 16 -3 31 -17 43 -20 18 -20
18 -13 -2 4 -11 9 -30 10 -41 3 -20 -1 -21 -38 -17 -82 9 -86 11 -86 45 0 17
-6 39 -14 47 -9 11 -15 47 -17 106 -5 137 0 267 10 261 5 -3 12 20 16 52 4 31
10 61 13 66 3 5 6 28 8 50 1 23 9 70 17 106 8 36 18 86 22 113 3 26 10 45 16
42 5 -4 9 2 9 12 0 14 3 13 15 -7 8 -14 19 -35 24 -47z m373 -288 c-5 -39 -7
-41 -33 -17 -27 26 -19 55 13 50 19 -2 22 -8 20 -33z m-278 -554 c3 -5 -3 -11
-15 -14 -16 -4 -18 -3 -8 9 13 16 16 17 23 5z"/>
<path d="M4961 4600 c0 -19 6 -92 13 -161 16 -137 10 -195 -17 -193 -22 2 -21
-2 3 -26 11 -11 20 -27 20 -36 0 -8 4 -13 9 -10 10 7 22 -107 11 -114 -11 -8
-33 -127 -26 -139 4 -6 14 -11 22 -11 8 0 34 -9 56 -20 23 -11 43 -20 44 -20
6 0 -8 55 -15 65 -5 5 -11 26 -14 45 -17 114 -28 174 -34 184 -4 6 -6 22 -5
36 5 43 -28 291 -47 365 -16 58 -19 64 -20 35z"/>
<path d="M4745 4471 c-3 -5 -1 -12 5 -16 5 -3 10 1 10 9 0 18 -6 21 -15 7z"/>
<path d="M4746 4428 c-3 -7 -14 -45 -25 -84 l-21 -71 -46 -6 c-25 -2 -53 -12
-62 -21 -15 -15 -12 -16 40 -13 67 2 94 -14 62 -37 -18 -14 -18 -15 -1 -21 9
-4 17 -16 17 -26 0 -12 10 -23 25 -29 30 -11 33 -30 5 -37 -24 -6 -25 -17 -5
-74 9 -24 13 -54 11 -65 -4 -16 0 -23 16 -27 12 -3 25 -4 29 -1 9 5 -10 77
-23 85 -6 4 -5 15 3 30 15 27 21 369 7 369 -4 0 -7 3 -7 8 3 18 -2 32 -11 32
-6 0 -12 -6 -14 -12z m34 -212 c0 -3 -4 -8 -10 -11 -5 -3 -10 -1 -10 4 0 6 5
11 10 11 6 0 10 -2 10 -4z"/>
<path d="M4810 3229 c0 -5 5 -7 10 -4 6 3 10 8 10 11 0 2 -4 4 -10 4 -5 0 -10
-5 -10 -11z"/>
<path d="M5180 2710 c0 -5 5 -10 10 -10 6 0 10 5 10 10 0 6 -4 10 -10 10 -5 0
-10 -4 -10 -10z"/>
<path d="M4655 2290 c3 -5 11 -10 16 -10 6 0 7 5 4 10 -3 6 -11 10 -16 10 -6
0 -7 -4 -4 -10z"/>
<path d="M4550 1586 c0 -2 7 -6 15 -10 8 -3 15 -1 15 4 0 6 -7 10 -15 10 -8 0
-15 -2 -15 -4z"/>
</g>
</svg>
